<svg width="16" height="16" viewBox="0 0 16 16" fill="none" xmlns="http://www.w3.org/2000/svg"><path d="M8 8c-1.1 0-2.042-.392-2.825-1.175C4.392 6.042 4 5.1 4 4s.392-2.042 1.175-2.825C5.958.392 6.9 0 8 0s2.042.392 2.825 1.175C11.608 1.958 12 2.9 12 4s-.392 2.042-1.175 2.825C10.042 7.608 9.1 8 8 8Zm-8 8v-2.8c0-.567.146-1.088.438-1.563A2.914 2.914 0 0 1 1.6 10.55a14.865 14.865 0 0 1 3.15-1.163A13.776 13.776 0 0 1 8 9c1.1 0 2.183.129 3.25.387 1.067.259 2.117.646 3.15 1.163.483.25.87.612 1.162 1.087.292.475.438.996.438 1.563V16H0Zm2-2h12v-.8a.943.943 0 0 0-.137-.5.977.977 0 0 0-.363-.35 13.03 13.03 0 0 0-2.725-1.013 11.615 11.615 0 0 0-5.55 0A13.03 13.03 0 0 0 2.5 12.35a.97.97 0 0 0-.5.85v.8Zm6-8c.55 0 1.021-.196 1.413-.588C9.804 5.021 10 4.55 10 4c0-.55-.196-1.02-.587-1.412A1.927 1.927 0 0 0 8 2c-.55 0-1.02.196-1.412.588A1.923 1.923 0 0 0 6 4c0 .55.196 1.02.588 1.412C6.979 5.804 7.45 6 8 6Z" fill="#fff"></path></svg>